<?xml version="1.0" standalone="no"?>
<!DOCTYPE svg PUBLIC "-//W3C//DTD SVG 1.1//EN" "http://www.w3.org/Graphics/SVG/1.1/DTD/svg11.dtd" >
<svg xmlns="http://www.w3.org/2000/svg">
<metadata></metadata>
<defs>
<font id="chelsearegular" horiz-adv-x="1014" >
<font-face units-per-em="2048" ascent="1638" descent="-410" />
<missing-glyph horiz-adv-x="508" />
<glyph horiz-adv-x="2048" />
<glyph horiz-adv-x="2048" />
<glyph unicode="&#xd;" horiz-adv-x="508" />
<glyph unicode=" "  horiz-adv-x="508" />
<glyph unicode="&#x09;" horiz-adv-x="508" />
<glyph unicode="&#xa0;" horiz-adv-x="508" />
<glyph unicode="!" horiz-adv-x="188" d="M0 0h73v103h-73v-103zM0 273h73v1170h-73v-1170z" />
<glyph unicode="&#x22;" horiz-adv-x="455" d="M0 1349h93v170h-93v-170zM165 1349h93v170h-93v-170z" />
<glyph unicode="#" horiz-adv-x="1131" d="M12 365l1 -62h86l151 1l-32 -148l-36 -156h64l32 142l35 162h310l-50 -227l-18 -77h63l15 64l53 240l332 1v61h-319l67 302h252v62l-238 -1l64 296h-60l-67 -296h-309l65 296h-63l-65 -296l-247 -1h-86v-61h86h233l-67 -302h-165h-87zM327 365l67 302l310 1l-68 -302z " />
<glyph unicode="$" horiz-adv-x="949" d="M0 426q0 -165 112 -287q111 -120 274 -136v-145h82v145q163 16 274 136q112 122 112 287t-112 287q-111 120 -274 136v512q92 -15 153 -86q62 -71 62 -166h82q0 128 -86 224q-85 94 -211 109v166h-82v-166q-125 -15 -210 -109q-86 -96 -86 -224t86 -224q85 -94 210 -109 v-692q-129 16 -216 113q-89 97 -89 229h-81zM171 1109q0 95 62 166q61 71 153 86v-504q-92 15 -153 86q-62 71 -62 166zM468 84v683q129 -15 217 -112t88 -229t-88 -229t-217 -113z" />
<glyph unicode="%" horiz-adv-x="1287" d="M0 1134q0 -120 85 -204q84 -85 204 -85t204 85q85 84 85 204t-85 204q-84 85 -204 85t-204 -85q-85 -84 -85 -204zM62 1134q0 94 66 161q67 66 161 66t161 -66q66 -67 66 -161t-66 -161q-67 -66 -161 -66t-161 66q-66 67 -66 161zM278 2h88l576 1441h-84zM640 271 q0 -120 85 -204q84 -85 204 -85t204 85q85 84 85 204t-85 204q-84 85 -204 85t-204 -85q-85 -84 -85 -204zM702 271q0 94 66 161q67 66 161 66t161 -66q66 -67 66 -161t-66 -161q-67 -66 -161 -66t-161 66q-66 67 -66 161z" />
<glyph unicode="&#x26;" horiz-adv-x="1683" d="M-3 339q0 -144 85 -233t235 -104q23 -2 45 -2q196 0 342 125q74 68 119 125l251 -252h117l-321 319q90 148 108 359h134v80h-334v-80h119q-17 -179 -86 -300l-290 290q-56 59 -97 103q266 188 264 357q-1 115 -87 207q-92 99 -220 99q-125 0 -217 -93t-90 -214 q1 -74 44 -137q36 -53 181 -205q-1 0 -2 -1q-80 -63 -155 -149q-145 -167 -145 -294zM77 339q0 88 106 218q75 91 159 159q7 4 13 8q63 -66 109 -114l302 -303q-43 -56 -115 -122q-37 -30 -96 -58q-117 -56 -230 -45q-120 12 -184 78t-64 179zM155 1126q-2 88 66 156 q68 70 160 70q93 0 161 -74q65 -69 65 -153q2 -127 -240 -297q-142 150 -176 196q-36 49 -36 102z" />
<glyph unicode="'" horiz-adv-x="276" d="M75 1349h93v170h-93v-170z" />
<glyph unicode="(" horiz-adv-x="389" d="M14 690q0 423 277 745l80 -69q-251 -292 -251 -676q0 -346 251 -626l-79 -71q-278 311 -278 697z" />
<glyph unicode=")" horiz-adv-x="460" d="M14 1361l80 68q274 -319 274 -738q0 -383 -275 -691l-78 70q248 278 248 621q0 380 -249 670z" />
<glyph unicode="*" horiz-adv-x="615" d="M90 1405l184 -61l-117 -160l28 -20l117 160l124 -161l27 22l-122 159l192 63l-11 34l-193 -64v203h-35v-203l-183 61z" />
<glyph unicode="+" horiz-adv-x="559" d="M7 617h195v-195h69v195h195v69h-195v195h-69v-195h-195v-69z" />
<glyph unicode="," horiz-adv-x="283" d="M75 90v-190h93v190h-93z" />
<glyph unicode="-" horiz-adv-x="629" d="M34 538h464v70h-464v-70z" />
<glyph unicode="." horiz-adv-x="240" d="M0 0h130v141h-130v-141z" />
<glyph unicode="/" horiz-adv-x="813" d="M14 0h93l635 1425h-93z" />
<glyph unicode="0" horiz-adv-x="1226" d="M8 718q0 342 145 530q146 188 411 188t410 -188q146 -188 146 -530t-146 -530q-145 -188 -410 -188t-411 188q-145 188 -145 530zM89 718q0 -248 83 -408q118 -229 392 -229q273 0 392 229q83 160 83 408t-83 408q-119 229 -392 229q-274 0 -392 -229q-83 -160 -83 -408z " />
<glyph unicode="1" horiz-adv-x="446" d="M1 1204l48 -69l193 134v-1269h84v1428z" />
<glyph unicode="2" d="M1 0h916v81h-685q245 206 416 401q266 302 272 494q6 182 -124 315q-135 140 -330 140q-188 0 -321 -133t-133 -321h80q0 155 110 264q109 110 264 110q161 0 272 -116q106 -109 101 -257q-10 -317 -746 -906z" />
<glyph unicode="3" horiz-adv-x="955" d="M0 424q0 -175 124 -300q124 -124 300 -124q175 0 299 124q124 125 124 300q0 129 -72 235q-70 104 -184 154q76 44 121 120q46 77 46 168q0 139 -98 237t-236 98q-139 0 -237 -98t-98 -237h81q0 105 74 180q75 74 180 74t179 -74q75 -75 75 -180t-75 -179 q-74 -75 -179 -75v-80q141 0 242 -101q100 -101 100 -242q0 -142 -100 -243q-101 -100 -242 -100q-142 0 -243 100q-100 101 -100 243h-81z" />
<glyph unicode="4" horiz-adv-x="806" d="M1 1444l1 -790h494v-654h89v654h93v90h-93v700h-89v-700h-404l-1 700h-90z" />
<glyph unicode="5" horiz-adv-x="1040" d="M7 458q0 -189 134 -324q135 -134 324 -134q190 0 324 134q134 135 134 324t-134 324q-133 134 -321 134q-175 11 -326 -60l39 502h660v82h-735l-58 -740l71 49q144 99 346 86q156 0 266 -111q111 -110 111 -266t-111 -266q-110 -111 -266 -111t-266 111 q-111 110 -111 266h-81z" />
<glyph unicode="6" horiz-adv-x="898" d="M8 377h2q6 -158 119 -267q113 -110 271 -110q162 0 277 115t115 277t-115 277t-277 115q-189 0 -308 -153v416q0 127 90 217q91 91 218 91t218 -91q90 -90 90 -217h84q0 162 -115 277t-277 115t-277 -115t-115 -277v-670zM92 392q0 127 90 218q91 90 218 90t218 -90 q90 -91 90 -218t-90 -218q-91 -90 -218 -90t-218 90q-90 91 -90 218z" />
<glyph unicode="7" horiz-adv-x="1124" d="M0 1115h85v238h876l-1 -234q-66 -123 -432 -1034h-252v-85h562v85h-218q377 939 410 992l14 13l3 348h-1047v-323z" />
<glyph unicode="8" horiz-adv-x="933" d="M-3 426q0 -176 125 -301t301 -125t301 125t125 301q0 130 -72 237q-70 105 -186 155q77 44 122 120q47 78 47 170q0 139 -99 238q-99 98 -238 98t-238 -98q-99 -99 -99 -238q0 -92 47 -170q45 -76 122 -120q-115 -50 -186 -155q-72 -107 -72 -237zM78 426q0 143 101 244 t244 101t244 -101t101 -244q0 -142 -101 -244q-101 -101 -244 -101t-244 101q-101 102 -101 244zM168 1108q0 105 75 180q74 75 180 75t181 -75t75 -180q0 -106 -75 -181t-181 -75t-180 75q-75 75 -75 181z" />
<glyph unicode="9" horiz-adv-x="891" d="M7 1044q0 -160 113 -273t273 -113q186 0 303 150v-808h83v1044q0 159 -113 272q-113 114 -273 114t-273 -114q-113 -113 -113 -272zM90 1044q0 125 89 214t214 89t214 -89t89 -214q0 -126 -89 -215t-214 -89t-214 89t-89 215z" />
<glyph unicode=":" horiz-adv-x="191" d="M0 219h99v107h-99v-107zM0 524h99v107h-99v-107z" />
<glyph unicode=";" horiz-adv-x="191" d="M0 15v-207h85v207h-85zM0 258h85v92h-85v-92z" />
<glyph unicode="&#x3c;" horiz-adv-x="713" d="M36 584l527 -397l45 61l-447 337l448 352l-47 60z" />
<glyph unicode="=" horiz-adv-x="537" d="M28 474h389v59h-389v-59zM28 620h389v59h-389v-59z" />
<glyph unicode="&#x3e;" d="M25 256l46 -61l524 395l-523 410l-47 -60l446 -349z" />
<glyph unicode="?" horiz-adv-x="748" d="M0 1081h66q0 115 82 198q82 82 198 82t198 -82q83 -83 83 -198q7 -111 -87 -203q-227 -222 -227 -386v-259h66v259q0 136 208 339q80 79 100 180q11 53 5 91h-2q-8 136 -107 230q-100 95 -237 95q-143 0 -244 -102q-102 -101 -102 -244zM313 1h66v93h-66v-93z" />
<glyph unicode="@" horiz-adv-x="1061" d="M6 495q0 -205 145 -350t350 -145v63q-178 0 -305 127t-127 305t127 305t305 127t305 -127t127 -305q0 -149 -93 -267h-43v537h-63v-119q-90 116 -233 116q-123 0 -210 -87q-86 -87 -86 -210t86 -209q87 -87 210 -87q143 0 233 115v-119h63h50l26 3l8 10q115 137 115 317 q0 205 -145 350t-350 145t-350 -145t-145 -350zM268 465q0 96 68 165q69 68 165 68t165 -68q68 -69 68 -165t-68 -165q-69 -68 -165 -68t-165 68q-68 69 -68 165z" />
<glyph unicode="A" horiz-adv-x="1542" d="M-4 1h528v76h-210l193 566h398l208 -566h-209v-76h528v76h-237l-499 1353l-463 -1353h-237v-76zM533 719l166 483l178 -483h-344z" />
<glyph unicode="B" horiz-adv-x="1266" d="M7 8h779q171 0 292 125t121 301q0 126 -70 231q-69 102 -181 151q76 44 121 119q46 78 46 168q0 137 -98 235q-97 98 -235 98h-775v-81h238v-1266h-238v-81zM326 89v681h456q139 0 238 -98q99 -99 99 -238q0 -143 -98 -244q-97 -101 -235 -101h-460zM326 850v505h456 q104 0 178 -74t74 -178t-74 -178t-178 -74v-1h-456z" />
<glyph unicode="C" horiz-adv-x="1429" d="M8 716q0 296 210 506t506 210q191 0 358 -96q166 -96 262 -262l-70 -41q-85 147 -233 233q-148 85 -317 85q-263 0 -449 -186t-186 -449t186 -449t449 -186q169 0 317 85q148 86 233 233l70 -41q-96 -166 -262 -262q-167 -96 -358 -96q-296 0 -506 210t-210 506z" />
<glyph unicode="D" horiz-adv-x="1351" d="M-1 0h558v2q295 0 504 209q210 209 210 504q0 296 -210 505q-209 209 -504 209h-558v-81h239v-1267h-239v-81zM318 81v1267h239q262 0 447 -185q186 -186 186 -448q0 -261 -186 -447q-185 -185 -447 -185v-2h-239z" />
<glyph unicode="E" horiz-adv-x="1386" d="M1 -7l1307 1v331h-81l7 -257l-913 6v597h441v81h-441v593l913 1l-7 -241h81v322l-1307 -2v-81h239v-1270h-239v-81z" />
<glyph unicode="F" horiz-adv-x="1379" d="M3 0h559v81h-239v598h441v81h-441v593l906 -5v-233h81v321l-1307 -3v-80h239v-1272h-239v-81z" />
<glyph unicode="G" horiz-adv-x="1450" d="M9 722q0 296 210 506t505 210q191 0 358 -96q166 -96 262 -262l-70 -40q-85 146 -233 232q-147 85 -317 85q-262 0 -448 -186t-186 -449q0 -262 186 -448t448 -186q151 0 286 68q134 68 224 188l-327 -1l-1 81l473 2l-35 -61q-96 -166 -262 -262q-167 -96 -358 -96 q-295 0 -505 210t-210 505z" />
<glyph unicode="H" horiz-adv-x="1499" d="M4 -1h561v81h-240v600h740v-600h-239v-81h560v81h-239v1275h239v81h-560v-81h239v-594h-740v594h240v81h-561v-81h240v-1275h-240v-81z" />
<glyph unicode="I" horiz-adv-x="636" d="M0 0h559v81h-239v1270h239v81h-559v-81h239v-1270h-239v-81z" />
<glyph unicode="J" horiz-adv-x="1146" d="M10 432q0 -152 83 -272q110 -160 324 -160q164 0 268 106q89 91 123 251q16 75 16 135v13v846h239v81h-558v-81h238v-847v-12q0 -48 -13 -114q-28 -139 -103 -216q-80 -81 -210 -81q-202 0 -283 170q-43 88 -43 181h-81z" />
<glyph unicode="K" horiz-adv-x="1478" d="M0 0h557v81h-238v549l650 -549h-162v-81h557v81h-270l-752 636l758 631h264v81h-557v-81h167l-655 -545v545h238v81h-557v-81h238v-1267h-238v-81z" />
<glyph unicode="L" horiz-adv-x="1393" d="M0 3l1307 -3v340h-81v-259l-906 2v1272h239v81h-559v-81h239v-1272h-239v-80z" />
<glyph unicode="M" horiz-adv-x="1630" d="M2 -7h572v83h-245v1205l466 -663l455 658v-1200h-245v-83h572v83h-245v1276h245v82l-322 1v-6l-461 -667l-469 670v2h-2l-1 2l-3 -2l-317 1v-83h245v-1276h-245v-83z" />
<glyph unicode="N" horiz-adv-x="1492" d="M8 6h557v80h-238v1158l815 -1244v1351h238v81h-556v-81h238v-1081l-735 1121v1h-1l-25 38v-1v3h-293v-81h238v-1265h-238v-80z" />
<glyph unicode="O" horiz-adv-x="1513" d="M9 717q0 297 210 507q211 210 507 210q297 0 507 -210t210 -507q0 -296 -210 -507q-210 -210 -507 -210q-296 0 -507 210q-210 211 -210 507zM90 717q0 -263 187 -450q186 -186 449 -186t450 186q186 187 186 450t-186 450q-187 186 -450 186t-449 -186 q-187 -187 -187 -450z" />
<glyph unicode="P" horiz-adv-x="1120" d="M-9 0h563v81h-241v689h461q139 0 238 99q98 98 98 237t-98 238q-99 98 -238 98h-783v-81h241v-1280h-241v-81zM313 852v509h461q105 0 180 -75t75 -180t-75 -180q-75 -74 -180 -74h-461z" />
<glyph unicode="Q" horiz-adv-x="1506" d="M0 711q2 -294 213 -502q210 -209 504 -209h7q270 2 471 183l172 -171l57 57l-171 171q183 206 183 479v6q-3 294 -214 502q-212 209 -511 209q-297 -3 -506 -215q-205 -209 -205 -502v-8zM81 712v8q0 259 182 444q185 189 455 191q261 0 447 -185q187 -185 190 -446v-6 q0 -239 -160 -420l-167 167l-58 -57l168 -168q-178 -157 -415 -159l-6 -40v40q-260 0 -447 185t-189 446z" />
<glyph unicode="R" horiz-adv-x="1330" d="M0 12h556v80h-238v625l659 -637h-172v-80h475v80h-187l-715 692h395q137 0 235 97q97 97 97 235q0 137 -97 234q-98 98 -235 98h-773v-81h238v-1263h-238v-80zM318 852v503h455q104 0 178 -74q74 -73 74 -177t-74 -178t-178 -74h-455z" />
<glyph unicode="S" horiz-adv-x="919" d="M-3 426q0 -176 125 -301t301 -125t301 125t125 301t-125 301t-301 125q-105 0 -180 75t-75 181q0 105 75 180t180 75q106 0 181 -75t75 -180h81q0 139 -99 238q-99 98 -238 98t-238 -98q-99 -99 -99 -238q0 -140 99 -238q99 -99 238 -99q143 0 244 -101t101 -244 q0 -142 -101 -244q-101 -101 -244 -101q-142 0 -244 101q-101 102 -101 244h-81z" />
<glyph unicode="T" horiz-adv-x="1407" d="M1 1110h81v240l553 1v-1270h-239v-81h560v81h-239v1270l553 1v-242h81v323l-1350 -2v-321z" />
<glyph unicode="U" horiz-adv-x="1386" d="M6 1355h239v-921q0 -153 83 -273q111 -161 326 -161q164 0 268 106q140 143 140 387v14v848h239v81h-560v-81h240v-849q0 -61 -14 -127q-28 -140 -103 -216q-80 -82 -210 -82q-203 0 -285 171q-43 89 -43 182v921h240v81h-560v-81z" />
<glyph unicode="V" horiz-adv-x="1492" d="M0 1359h238l465 -1359l502 1359h238v77h-531v-77h211l-417 -1130l-387 1130h212v77h-531v-77z" />
<glyph unicode="W" horiz-adv-x="1846" d="M8 1358h234l246 -1358l413 676l422 -675l235 1357h234v78h-535v-78h223l-199 -1145l-381 610l-372 -609l-207 1144h222v78h-535v-78z" />
<glyph unicode="X" horiz-adv-x="1400" d="M8 0h536v81h-199l328 559l1 -2l1 2l328 -559h-209v-81h536v81h-233l-375 639l375 639h233v82h-536v-82h209l-328 -558l-1 2l-1 -2l-328 558h199v82h-536v-82h243l375 -639l-375 -639h-243v-81z" />
<glyph unicode="Y" horiz-adv-x="1379" d="M2 1352h241l380 -647v-624h-231v-81h533v81h-222l1 624l379 647h232v81h-533v-81h208l-327 -556l-327 556h198v81h-532v-81z" />
<glyph unicode="Z" horiz-adv-x="1542" d="M-34 0h1429v322l-81 -1v-240h-1164l1293 1353l-1402 -1h-40v-321h80v241h1172l-1227 -1284z" />
<glyph unicode="[" horiz-adv-x="474" d="M0 1h64v-1h346v83h-326v1274h326v83h-410v-1439z" />
<glyph unicode="\" horiz-adv-x="813" d="M5 1443l643 -1443h94l-643 1443h-94z" />
<glyph unicode="]" horiz-adv-x="758" d="M0 0h346v1h63v1435h-409v-83h326v-1270h-326v-83z" />
<glyph unicode="^" horiz-adv-x="905" d="M13 1004l44 -55l395 312l395 -312l44 55l-439 347z" />
<glyph unicode="_" horiz-adv-x="1024" d="M0 -100h1024v-60h-1024v60z" />
<glyph unicode="`" horiz-adv-x="658" d="M35 1340l500 -194l23 59l-500 194z" />
<glyph unicode="a" horiz-adv-x="962" d="M8 393q0 -161 114 -274q114 -114 274 -114q91 0 173 41q77 40 132 110v-156h162v83h-79v702h-83v-155q-55 70 -132 110q-82 41 -173 41q-160 0 -274 -114t-114 -274zM91 393q0 126 89 215q90 90 216 90t216 -90q89 -89 89 -215t-89 -216q-90 -89 -216 -89t-216 89 q-89 90 -89 216z" />
<glyph unicode="b" horiz-adv-x="924" d="M7 1344h79v-1344h82v155q118 -150 304 -150q160 0 273 113t113 273t-113 273t-273 113q-186 0 -304 -150v798h-41v1h-120v-82zM168 391q0 125 89 214t215 89q125 0 214 -89t89 -214q0 -126 -89 -215t-214 -89q-126 0 -215 89t-89 215z" />
<glyph unicode="c" horiz-adv-x="792" d="M8 386q0 159 113 272t273 113q103 0 192 -52q90 -51 142 -141l-72 -41q-40 71 -111 111q-70 41 -151 41q-126 0 -215 -89t-89 -214q0 -126 89 -215t215 -89q81 0 151 41q71 41 111 111l72 -41q-52 -89 -142 -141q-89 -52 -192 -52q-160 0 -273 113t-113 273z" />
<glyph unicode="d" horiz-adv-x="966" d="M3 393q0 -160 114 -274t274 -114q187 0 305 151v-155h41v-1h121v83h-79v1266h79v84h-79h-83v-803q-118 151 -305 151q-160 0 -274 -113q-114 -114 -114 -275zM86 393q0 127 89 216q90 89 216 89t216 -89q89 -89 89 -216q0 -126 -89 -215q-90 -90 -216 -90t-216 90 q-89 89 -89 215z" />
<glyph unicode="e" horiz-adv-x="834" d="M-1 389q0 -161 114 -275t275 -114q104 0 194 52q91 53 143 142l-72 42q-41 -71 -112 -112t-153 -41q-115 0 -202 76q-86 76 -101 188h685l4 38q1 9 1 21q0 19 -3 42q-11 72 -48 135q-46 80 -131 134q-97 61 -205 61q-161 0 -275 -114t-114 -275zM85 430q15 113 101 188 q87 77 202 77q84 0 161 -49q68 -43 104 -104q30 -52 37 -112h-605z" />
<glyph unicode="f" horiz-adv-x="833" d="M10 0h279v81h-99v592h393v81h-393v341q0 104 74 178t178 74t178 -74t74 -178v-89h80v89q0 137 -97 235q-98 98 -235 98q-138 0 -235 -98q-98 -98 -98 -235v-1014h-99v-81z" />
<glyph unicode="g" horiz-adv-x="912" d="M5 -29q0 -159 113 -272t272 -113q160 0 273 113t113 272v716h71v82h-120h-34v-144q-117 150 -303 150q-159 0 -272 -113t-113 -272q0 -160 113 -273t272 -113q186 0 303 150v-183q0 -125 -89 -214q-88 -89 -214 -89q-125 0 -214 89t-89 214h-82zM87 390q0 125 89 214 t214 89q126 0 214 -89q89 -89 89 -214q0 -126 -89 -214q-88 -89 -214 -89q-125 0 -214 89q-89 88 -89 214z" />
<glyph unicode="h" horiz-adv-x="982" d="M-20 0h279v81h-99v345q0 122 87 209q86 87 209 87t209 -87q87 -87 87 -209v-345h-99v-81h279v81h-99v345q0 156 -111 266q-110 111 -266 111q-182 0 -296 -147v776h-40v1h-117v-81h76v-1271h-99v-81z" />
<glyph unicode="i" horiz-adv-x="389" d="M4 0h290v84h-103v710h-42h-122v-84h80v-626h-103v-84zM106 941h84v84h-84v-84z" />
<glyph unicode="j" horiz-adv-x="853" d="M9 41v-92q0 -142 101 -244q101 -101 244 -101t244 101q101 102 101 244v843h-84v-1h-80v-83h80v-759q0 -108 -76 -185q-77 -76 -185 -76t-185 76q-76 77 -76 185v92h-84zM606 937h84v83h-84v-83z" />
<glyph unicode="k" horiz-adv-x="898" d="M-4 6h289v84h-103v370l478 -460h167v84h-126l-474 455l373 366h105v84h-139l-384 -376v821h-83v-1h-74v-84h74v-1259h-103v-84z" />
<glyph unicode="l" horiz-adv-x="375" d="M-12 0h279v81h-99v1350h-40v1h-117v-81h76v-1270h-99v-81z" />
<glyph unicode="m" horiz-adv-x="1601" d="M-58 0h267v83h-92v328q0 117 83 199q82 83 199 83q116 0 198 -83q83 -82 83 -199v-328h-92v-83h267v83h-92v328q0 117 83 199q82 83 198 83q117 0 199 -83q83 -82 83 -199v-328h-93v-83h268v83h-92v328q0 151 -107 258t-258 107q-104 0 -191 -56q-85 -53 -132 -143 q-46 90 -131 143q-88 56 -191 56q-171 0 -282 -136v195h-41v3h-112v-83h70v-672h-92v-83z" />
<glyph unicode="n" horiz-adv-x="1011" d="M-16 0h270v83h-94v331q0 117 83 201q84 83 201 83q118 0 201 -83q83 -84 83 -201v-331h-93v-83h269v83h-93v331q0 152 -108 259q-107 108 -259 108q-173 0 -284 -138v198h-41v2h-113v-82h71v-678h-93v-83z" />
<glyph unicode="o" horiz-adv-x="863" d="M16 387q0 160 113 274q114 113 274 113t274 -113q113 -114 113 -274t-113 -274q-114 -113 -274 -113t-274 113q-113 114 -113 274zM99 387q0 -126 89 -215t215 -89t215 89t89 215t-89 215t-215 89t-215 -89t-89 -215z" />
<glyph unicode="p" horiz-adv-x="948" d="M-26 -332v-83h289v83h-103v487q119 -152 307 -152q162 0 276 115q115 115 115 276t-115 276q-114 115 -276 115q-188 0 -307 -152v156h-41v1h-122v-83h80v-1039h-103zM160 394q0 127 90 217t217 90q128 0 218 -90t90 -217t-90 -217t-218 -90q-127 0 -217 90t-90 217z" />
<glyph unicode="q" horiz-adv-x="955" d="M9 390q0 -160 114 -275q114 -114 275 -114q188 0 305 151v-484h-102v-83h288v83h-103v1034h80v83h-121v-1h-42v-156q-117 152 -305 152q-161 0 -275 -115q-114 -114 -114 -275zM92 390q0 127 90 216q89 90 216 90q126 0 216 -90q89 -89 89 -216t-89 -216 q-90 -90 -216 -90q-127 0 -216 90q-90 89 -90 216z" />
<glyph unicode="r" horiz-adv-x="792" d="M-2 0h257v74h-92v318q0 113 80 193q81 80 193 80q68 0 127 -31q60 -31 98 -87l61 43q-49 70 -124 110q-76 39 -162 39q-81 0 -154 -37q-70 -35 -119 -98v195h-36h-108v-74h70v-651h-91v-74z" />
<glyph unicode="s" horiz-adv-x="537" d="M8 242q0 -100 71 -171t171 -71t170 71q71 71 71 171t-71 170q-70 71 -170 71q-51 0 -87 36t-36 87q0 50 36 86t87 36q50 0 86 -36t36 -86h72q0 80 -57 137t-137 57t-137 -57t-57 -137t57 -137t137 -57q70 0 120 -50t50 -120q0 -71 -50 -121t-120 -50q-71 0 -121 50 t-50 121h-71z" />
<glyph unicode="t" horiz-adv-x="820" d="M1 721h381v68h-381v-68zM170 286q0 -118 84 -202q83 -84 202 -84q118 0 202 84t84 202v76h-70v-76q0 -89 -63 -153q-64 -64 -153 -64q-90 0 -153 64q-64 64 -64 153v436h353v69h-353v652h-69v-1157z" />
<glyph unicode="u" horiz-adv-x="988" d="M3 730h114v-362q0 -130 70 -232q94 -136 276 -136q139 0 227 90q77 78 105 213q14 67 14 119v7v301h117v69h-302v-69h116v-301v-12q0 -40 -11 -96q-24 -119 -88 -183q-68 -69 -178 -69q-171 0 -241 145q-36 74 -36 154v362h119v69h-302v-69z" />
<glyph unicode="v" horiz-adv-x="767" d="M-2 742h113l255 -742l273 742h100v64h-281v-64h113l-203 -551l-189 551h100v64h-281v-64z" />
<glyph unicode="w" horiz-adv-x="1040" d="M1 729h113l138 -729l222 379l222 -379l139 729h112v64h-279v-64h102l-105 -551l-191 326l-191 -326l-105 551h102v64h-279v-64z" />
<glyph unicode="x" horiz-adv-x="799" d="M7 0h288v69h-85l154 262l1 -1v1l154 -262h-90v-69h288v69h-118l-194 331l194 330h118v69h-288v-69h90l-154 -262v1l-1 -1l-154 262h85v69h-288v-69h123l194 -330l-194 -331h-123v-69z" />
<glyph unicode="y" horiz-adv-x="1139" d="M-3 730h163l305 -475l-296 -604h-168v-72h370v72h-120l287 585l296 494h156v72h-370v-72h130l-243 -404l-264 404h124v72h-370v-72z" />
<glyph unicode="z" horiz-adv-x="912" d="M1 0h812v186l-67 -1v-118h-591l700 732h-786h-34v-185h67v118h596l-646 -675z" />
<glyph unicode="{" horiz-adv-x="481" d="M0 769l102 28q139 16 154 59q9 27 -20 78q-25 43 -61 78l-8 9q-108 160 -53 274q37 77 139 116q56 21 111 25l9 -111q-40 -3 -82 -19q-60 -23 -77 -59q-26 -55 43 -159q47 -47 77 -102q52 -93 27 -166q-23 -68 -107 -102q84 -34 107 -102q25 -73 -27 -166 q-30 -55 -77 -102q-69 -104 -43 -159q17 -36 77 -59q42 -16 81 -19l-8 -111q-55 4 -111 25q-102 39 -139 116q-55 114 53 274l8 9q36 35 61 78q29 51 20 78q-15 44 -145 57l-108 24z" />
<glyph unicode="|" horiz-adv-x="191" d="M27 -422h89v2048h-89v-2048z" />
<glyph unicode="}" horiz-adv-x="474" d="M-3 111q39 3 82 19q59 23 76 59q27 55 -42 159q-47 47 -78 102q-52 93 -27 166q24 67 107 102q-83 34 -107 102q-25 73 27 166q31 55 78 102q69 104 42 159q-17 36 -77 59q-42 16 -81 19l9 111q54 -4 110 -25q103 -39 140 -116q54 -114 -54 -274l-8 -9q-36 -35 -61 -78 q-29 -51 -20 -78q16 -44 145 -57l111 -30l-3 -108l-102 -23q-135 -14 -151 -58q-9 -27 20 -78q25 -43 61 -78l8 -9q108 -160 54 -274q-37 -77 -140 -116q-56 -21 -110 -25z" />
<glyph unicode="~" horiz-adv-x="552" d="M36 472q7 21 25 46q32 46 77 58q66 18 140 -43q54 -45 87 -36q28 7 49 59l31 -8l30 -13q-34 -86 -94 -101q-13 -3 -26 -3q-55 0 -118 52q-48 40 -82 31q-21 -6 -39 -30q-13 -17 -19 -34z" />
<glyph unicode="&#xa1;" horiz-adv-x="672" />
<glyph unicode="&#xa2;" horiz-adv-x="1139" />
<glyph unicode="&#xa3;" d="M76 673v60h135q-58 143 -58 253q0 226 123.5 347t306.5 121h4q75 0 185.5 -14t110.5 -34v-161h-58q-5 61 -77 102q-72 31 -160 31h-2q-100 0 -190 -101q-84 -93 -84 -241q0 -15 1 -30q0 -135 53 -273h360v-60h-334q14 -30 31 -60q35 -63 35 -138q0 -161 -162 -375h402 q130 0 189 132l49 -1l-103 -231h-719l1 50q187 238 187 418q0 77 -34 143q-17 32 -31 62h-161z" />
<glyph unicode="&#xa4;" d="M122 413l118 117q-32 46 -48 103q-12 42 -12 84q0 44 13 87q16 55 47 99l-118 118l80 81l118 -118q44 30 99 46q44 14 89 14q41 0 83 -12q57 -17 102 -48l118 118l80 -81l-117 -117q31 -46 48 -102q12 -42 12 -85q0 -42 -12 -85q-17 -56 -48 -102l117 -117l-80 -81 l-118 118q-45 -32 -101 -48q-42 -12 -85 -12q-42 0 -85 12q-57 16 -102 48l-118 -118zM284 716q0 -28 9 -56q16 -59 57 -100q41 -40 99 -57q29 -8 58 -8t58 8q58 17 99 57q40 41 57 99q9 29 9 58t-9 58q-17 58 -57 99q-41 40 -100 57q-29 8 -58 8t-58 -9q-58 -17 -98 -56 q-39 -40 -56 -98q-10 -30 -10 -60z" />
<glyph unicode="&#xa5;" horiz-adv-x="1262" d="M8 1176q0 19 10.5 27.5t32.5 8.5q27 0 123 -8t164 -8h88q33 0 41 -6.5t8 -26.5q0 -8 -15 -14t-38 -6q-6 0 -18.5 2t-18.5 2q-24 0 -37.5 -9.5t-13.5 -25.5q0 -18 16.5 -52t46.5 -77l158 -221q13 -19 33 -53q41 -70 71 -70q9 0 16.5 5t14.5 15l277 396q8 12 13 26.5 t5 24.5q0 18 -10 27t-37 14q-15 2 -41 4q-47 3 -47 25q0 15 8 22.5t25 7.5q3 0 15 -1q56 -7 108 -7h139q30 0 65 1t37 1q11 0 18.5 -4.5t8.5 -11.5q0 -28 -38 -34q-18 -3 -27 -5q-63 -15 -147 -117q-7 -9 -12 -15l-169 -206h323q15 0 24 -6t9 -17q0 -15 -6 -20.5t-23 -5.5 h-366q-46 -57 -96.5 -112.5t-52.5 -59.5h511q18 0 25.5 -5.5t7.5 -17.5q0 -14 -7 -21t-22 -7h-530q0 -11 -1 -30.5t-1 -29.5l2 -215q0 -114 5.5 -150t20.5 -44q30 -17 107.5 -19t77.5 -31q0 -12 -10 -20t-25 -8q-2 0 -35.5 4t-64.5 4q-91 0 -208.5 -4t-142.5 -4q-31 0 -40 4 t-9 16t8 18.5t37 12.5q9 2 25 5q74 16 92 32q17 13 24 47t7 102l-2 242q0 19 -1.5 35t-4.5 32l-484 1q-14 0 -21 6.5t-7 19.5t6.5 19t21.5 6h467l-121 172h-344q-17 0 -23.5 5.5t-6.5 18.5q0 14 6 19.5t22 5.5h307q-43 57 -108 155q-131 197 -227 197q-7 0 -13 5.5t-6 11.5z " />
<glyph unicode="&#xa6;" d="M427 371h160v-789h-160v789zM427 789v789h160v-789h-160z" />
<glyph unicode="&#xa7;" d="M170 1130q0 148 89 237q82 79 216 86q8 1 17 1h3q66 0 163 -16.5t97 -41.5v-194h-51q-5 81 -80 132q-70 47 -149 51h-15q-78 0 -125 -44.5t-47 -117.5q0 -132 287 -269q149 -67 204.5 -143.5t55.5 -187.5q0 -171 -101 -282q-47 -39 -99 -64q108 -56 154 -118 q55 -77 55 -187q0 -171 -101 -283q-124 -102 -277 -105v1q-6 -1 -13 -1h-3q-66 0 -163 16.5t-97 41.5v194h51q5 -81 80 -132q68 -45 145 -50q113 6 185 69q72 64 72 165q0 125 -316 276q-123 64 -175.5 137t-52.5 177q0 148 89 237q67 65 170 82l-40 19q-123 64 -175.5 137 t-52.5 177zM297 571q0 -123 248 -250q56 16 97 53q73 65 73 166q0 5 -1 10h-2q-1 14 -4 27q-22 61 -113 127q-59 29 -126 29q-78 0 -125 -44.5t-47 -117.5z" />
<glyph unicode="&#xa8;" horiz-adv-x="1024" d="M209 1263q0 13 14 26l71 72q13 12 25 12q11 0 27 -14l69 -73q10 -14 10 -25q0 -13 -12 -27l-69 -75q-17 -17 -25 -17q-14 0 -25 12l-76 86q-9 12 -9 23zM574 1263q0 13 14 26l71 72q13 12 25 12q11 0 27 -13l69 -74q10 -14 10 -25q0 -13 -12 -26l-69 -76q-17 -17 -25 -17 q-14 0 -25 12l-76 87q-9 11 -9 22z" />
<glyph unicode="&#xa9;" horiz-adv-x="1674" d="M100 718q0 148 55.5 283t159.5 238q102 104 238.5 160.5t286.5 56.5q145 0 280 -56.5t239 -160.5q102 -101 158.5 -238t56.5 -283q0 -147 -56.5 -282t-162.5 -240q-105 -105 -239 -159.5t-283 -54.5q-146 0 -278 55.5t-238 160.5q-106 104 -161.5 237.5t-55.5 282.5z M160 718q0 -137 51 -259t148 -219q98 -96 219 -147t256 -51q137 0 259.5 50.5t219.5 145.5q97 98 149 221.5t52 258.5q0 134 -52 259.5t-145 219.5q-96 96 -220 147.5t-258 51.5q-137 0 -262 -51.5t-220 -147.5t-146 -219.5t-51 -259.5zM351 719q0 126 65.5 244t187.5 184.5 t254 66.5q38 0 75 -6.5t76 -20.5q5 -1 9 -1q19 0 26 30h42l72 -198h-44q-52 94 -131 124q-72 26 -147 26h-15q-86 -8 -166.5 -71t-121.5 -177q-33 -90 -33 -184q0 -25 2 -50q11 -121 69.5 -224t149.5 -152q72 -40 166 -42q124 0 194 56t70 126h53v-100q0 -46 -96.5 -86.5 t-242.5 -40.5q-142 0 -264 68t-186 185t-64 243z" />
<glyph unicode="&#xaa;" horiz-adv-x="648" />
<glyph unicode="&#xab;" horiz-adv-x="944" d="M174 479l342 303h14v-37l-205 -266l205 -266v-37h-14zM487 479l342 303h14v-37l-205 -266l205 -266v-37h-14z" />
<glyph unicode="&#xac;" d="M87 667v100h840v-491l-1 -1h-98v392h-741z" />
<glyph unicode="&#xad;" horiz-adv-x="629" d="M34 538h464v70h-464v-70z" />
<glyph unicode="&#xae;" horiz-adv-x="1674" d="M100 718q0 148 55.5 283t159.5 238q102 104 238.5 160.5t286.5 56.5q145 0 280 -56.5t239 -160.5q102 -101 158.5 -238t56.5 -283q0 -147 -56.5 -282t-162.5 -240q-105 -105 -239 -159.5t-283 -54.5q-146 0 -278 55.5t-238 160.5q-106 104 -161.5 237.5t-55.5 282.5z M160 718q0 -137 51 -259t148 -219q98 -96 219 -147t256 -51q137 0 259.5 50.5t219.5 145.5q97 98 149 221.5t52 258.5q0 134 -52 259.5t-145 219.5q-96 96 -220 147.5t-258 51.5q-137 0 -262 -51.5t-220 -147.5t-146 -219.5t-51 -259.5zM524 269v50h43q37 0 37 121v538 q0 121 -37 121h-43v70h356q64 -1 125 -42q60 -41 92.5 -114t32.5 -152q0 -78 -32 -150.5t-114 -134.5l82 -116q100 -141 150 -141h34v-50h-346v50h45q30 0 30 22q0 29 -69 114l-75 102q-42 0 -84 42v-159q0 -121 36 -121h53v-50h-316zM751 725l3 -8q23 -56 56 -81 q29 -22 56 -22h6q31 4 61.5 38.5t46.5 97.5q13 50 13 103q0 13 -1 27q-4 67 -28 124.5t-56.5 76t-63.5 18.5h-93v-374z" />
<glyph unicode="&#xaf;" horiz-adv-x="670" />
<glyph unicode="&#xb0;" horiz-adv-x="674" d="M60 1164q0 116 81.5 197t197.5 81q115 0 196 -81.5t81 -196.5q0 -114 -82 -196t-197 -82q-117 0 -197 81t-80 197zM130 1163q0 -87 61 -147t148 -60t147 60t60 147t-60.5 148t-146.5 61t-147.5 -61t-61.5 -148z" />
<glyph unicode="&#xb1;" />
<glyph unicode="&#xb2;" />
<glyph unicode="&#xb3;" />
<glyph unicode="&#xb4;" horiz-adv-x="1024" d="M316 1078l291 297q35 35 55.5 47t40.5 12q33 0 53.5 -20t20.5 -51q0 -22 -15.5 -42t-46.5 -40l-330 -203h-69z" />
<glyph unicode="&#xb5;" horiz-adv-x="1180" />
<glyph unicode="&#xb6;" horiz-adv-x="1024" d="M93 1086q0 157 107.5 253t285.5 96h443v-70h-127v-1365h-82v1365h-166v-1365h-84v738q-174 8 -275.5 102.5t-101.5 245.5z" />
<glyph unicode="&#xb7;" horiz-adv-x="508" d="M129 709q0 15 16 31l82 84q15 14 29 14q13 0 31 -16l80 -86q12 -16 12 -29q0 -15 -14 -31l-80 -88q-20 -20 -29 -20q-16 0 -29 14l-88 101q-10 13 -10 26z" />
<glyph unicode="&#xb8;" horiz-adv-x="1024" d="M360 -290q85 -52 152 -52q66 0 94.5 21.5t28.5 66.5t-49 64q-40 16 -102 16q-16 0 -34 -2l48 176h63l-37 -104q32 4 62 5q86 0 134 -40.5t48 -113.5q0 -76 -58.5 -120.5t-160.5 -44.5q-109 0 -189 32v96z" />
<glyph unicode="&#xb9;" />
<glyph unicode="&#xba;" horiz-adv-x="718" />
<glyph unicode="&#xbb;" horiz-adv-x="944" d="M101 176v37l205 266l-205 266v37h14l342 -303l-342 -303h-14zM414 176v37l205 266l-205 266v37h14l342 -303l-342 -303h-14z" />
<glyph unicode="&#xbc;" horiz-adv-x="1708" />
<glyph unicode="&#xbd;" horiz-adv-x="1964" />
<glyph unicode="&#xbe;" horiz-adv-x="1708" />
<glyph unicode="&#xbf;" horiz-adv-x="748" />
<glyph unicode="&#xc0;" horiz-adv-x="1540" />
<glyph unicode="&#xc1;" horiz-adv-x="1540" />
<glyph unicode="&#xc2;" horiz-adv-x="1540" />
<glyph unicode="&#xc3;" horiz-adv-x="1540" />
<glyph unicode="&#xc4;" horiz-adv-x="1540" />
<glyph unicode="&#xc5;" horiz-adv-x="1540" />
<glyph unicode="&#xc6;" horiz-adv-x="2118" />
<glyph unicode="&#xc7;" horiz-adv-x="1399" />
<glyph unicode="&#xc8;" horiz-adv-x="1151" />
<glyph unicode="&#xc9;" horiz-adv-x="1151" />
<glyph unicode="&#xca;" horiz-adv-x="1151" />
<glyph unicode="&#xcb;" horiz-adv-x="1151" />
<glyph unicode="&#xcc;" horiz-adv-x="657" />
<glyph unicode="&#xcd;" horiz-adv-x="657" />
<glyph unicode="&#xce;" horiz-adv-x="657" />
<glyph unicode="&#xcf;" horiz-adv-x="657" />
<glyph unicode="&#xd0;" horiz-adv-x="1518" />
<glyph unicode="&#xd1;" horiz-adv-x="1554" />
<glyph unicode="&#xd2;" horiz-adv-x="1614" />
<glyph unicode="&#xd3;" horiz-adv-x="1614" />
<glyph unicode="&#xd4;" horiz-adv-x="1614" />
<glyph unicode="&#xd5;" horiz-adv-x="1614" />
<glyph unicode="&#xd6;" horiz-adv-x="1614" />
<glyph unicode="&#xd7;" d="M161 470l247 247l-247 248l99 98l247 -247l248 247l98 -99l-247 -247l247 -247l-99 -99l-247 247l-247 -247z" />
<glyph unicode="&#xd8;" horiz-adv-x="1614" />
<glyph unicode="&#xd9;" horiz-adv-x="1501" />
<glyph unicode="&#xda;" horiz-adv-x="1501" />
<glyph unicode="&#xdb;" horiz-adv-x="1501" />
<glyph unicode="&#xdc;" horiz-adv-x="1501" />
<glyph unicode="&#xdd;" horiz-adv-x="1233" />
<glyph unicode="&#xde;" horiz-adv-x="1120" />
<glyph unicode="&#xdf;" horiz-adv-x="1251" />
<glyph unicode="&#xe0;" horiz-adv-x="922" />
<glyph unicode="&#xe1;" horiz-adv-x="922" />
<glyph unicode="&#xe2;" horiz-adv-x="922" />
<glyph unicode="&#xe3;" horiz-adv-x="922" />
<glyph unicode="&#xe4;" horiz-adv-x="922" />
<glyph unicode="&#xe5;" horiz-adv-x="922" />
<glyph unicode="&#xe6;" horiz-adv-x="1454" />
<glyph unicode="&#xe7;" horiz-adv-x="905" />
<glyph unicode="&#xe8;" horiz-adv-x="909" />
<glyph unicode="&#xe9;" horiz-adv-x="909" />
<glyph unicode="&#xea;" horiz-adv-x="909" />
<glyph unicode="&#xeb;" horiz-adv-x="909" />
<glyph unicode="&#xec;" horiz-adv-x="514" />
<glyph unicode="&#xed;" horiz-adv-x="514" />
<glyph unicode="&#xee;" horiz-adv-x="514" />
<glyph unicode="&#xef;" horiz-adv-x="514" />
<glyph unicode="&#xf0;" horiz-adv-x="1139" />
<glyph unicode="&#xf1;" horiz-adv-x="1108" />
<glyph unicode="&#xf2;" horiz-adv-x="1010" />
<glyph unicode="&#xf3;" horiz-adv-x="1010" />
<glyph unicode="&#xf4;" horiz-adv-x="1010" />
<glyph unicode="&#xf5;" horiz-adv-x="1010" />
<glyph unicode="&#xf6;" horiz-adv-x="1010" />
<glyph unicode="&#xf7;" d="M87 647v140h839l1 -1v-139h-840zM382 377q0 15 16 31l82 84q15 14 29 14q13 0 31 -16l80 -86q12 -16 12 -29q0 -15 -14 -31l-80 -88q-20 -20 -29 -20q-16 0 -29 14l-88 101q-10 13 -10 26zM382 1070q0 15 16 31l82 84q15 14 29 14q13 0 31 -16l80 -86q12 -16 12 -29 q0 -15 -14 -31l-80 -88q-20 -20 -29 -20q-16 0 -29 14l-88 101q-10 13 -10 26z" />
<glyph unicode="&#xf8;" horiz-adv-x="1010" />
<glyph unicode="&#xf9;" horiz-adv-x="1059" />
<glyph unicode="&#xfa;" horiz-adv-x="1059" />
<glyph unicode="&#xfb;" horiz-adv-x="1059" />
<glyph unicode="&#xfc;" horiz-adv-x="1059" />
<glyph unicode="&#xfd;" horiz-adv-x="868" />
<glyph unicode="&#xfe;" horiz-adv-x="1010" />
<glyph unicode="&#xff;" horiz-adv-x="868" />
<glyph unicode="&#x2c6;" horiz-adv-x="1024" d="M221 1079l232 355h118l232 -355h-58l-233 216l-233 -216h-58z" />
<glyph unicode="&#x2dc;" horiz-adv-x="1024" d="M234 1132q19 106 68 158.5t129 52.5q46 -1 113 -24q64 -23 112 -23h4q36 0 58 20t36 66h54q-20 -103 -68.5 -154t-126.5 -51h-4q-50 0 -113 23q-66 24 -114 24q-39 0 -60.5 -20.5t-33.5 -71.5h-54z" />
<glyph unicode="&#x2000;" horiz-adv-x="813" />
<glyph unicode="&#x2001;" horiz-adv-x="1626" />
<glyph unicode="&#x2002;" horiz-adv-x="813" />
<glyph unicode="&#x2003;" horiz-adv-x="1626" />
<glyph unicode="&#x2004;" horiz-adv-x="542" />
<glyph unicode="&#x2005;" horiz-adv-x="406" />
<glyph unicode="&#x2006;" horiz-adv-x="271" />
<glyph unicode="&#x2007;" horiz-adv-x="271" />
<glyph unicode="&#x2008;" horiz-adv-x="203" />
<glyph unicode="&#x2009;" horiz-adv-x="325" />
<glyph unicode="&#x200a;" horiz-adv-x="90" />
<glyph unicode="&#x2010;" horiz-adv-x="629" d="M34 538h464v70h-464v-70z" />
<glyph unicode="&#x2011;" horiz-adv-x="629" d="M34 538h464v70h-464v-70z" />
<glyph unicode="&#x2012;" horiz-adv-x="629" d="M34 538h464v70h-464v-70z" />
<glyph unicode="&#x2013;" horiz-adv-x="1108" d="M56 419v120h996v-120h-996z" />
<glyph unicode="&#x2014;" horiz-adv-x="2048" d="M0 419v120h2048v-120h-2048z" />
<glyph unicode="&#x2018;" horiz-adv-x="557" d="M186 1233q0 109 71 226.5t139 117.5v-43q-73 -43 -87 -190q0 -119 129 -161v-42l-119 -125q-44 0 -88.5 65.5t-44.5 151.5z" />
<glyph unicode="&#x2019;" horiz-adv-x="557" d="M119 1410v42l119 125q44 0 88.5 -65.5t44.5 -151.5q0 -109 -71 -226.5t-139 -117.5v43q73 43 87 190q0 119 -129 161z" />
<glyph unicode="&#x201a;" horiz-adv-x="557" d="M119 114v42l119 125q44 0 88.5 -65.5t44.5 -151.5q0 -109 -71 -226.5t-139 -117.5v43q73 43 87 190q0 119 -129 161z" />
<glyph unicode="&#x201c;" horiz-adv-x="910" d="M186 1233q0 109 71 226.5t139 117.5v-43q-73 -43 -87 -190q0 -119 129 -161v-42l-119 -125q-44 0 -88.5 65.5t-44.5 151.5zM539 1233q0 109 71 226.5t139 117.5v-43q-73 -43 -87 -190q0 -119 129 -161v-42l-119 -125q-44 0 -88.5 65.5t-44.5 151.5z" />
<glyph unicode="&#x201d;" horiz-adv-x="910" d="M119 1410v42l119 125q44 0 88.5 -65.5t44.5 -151.5q0 -109 -71 -226.5t-139 -117.5v43q73 43 87 190q0 119 -129 161zM472 1410v42l119 125q44 0 88.5 -65.5t44.5 -151.5q0 -109 -71 -226.5t-139 -117.5v43q73 43 87 190q0 119 -129 161z" />
<glyph unicode="&#x201e;" horiz-adv-x="910" d="M119 114v42l119 125q44 0 88.5 -65.5t44.5 -151.5q0 -109 -71 -226.5t-139 -117.5v43q73 43 87 190q0 119 -129 161zM472 114v42l119 125q44 0 88.5 -65.5t44.5 -151.5q0 -109 -71 -226.5t-139 -117.5v43q73 43 87 190q0 119 -129 161z" />
<glyph unicode="&#x2022;" horiz-adv-x="1024" d="M216 718q0 123 87 209t210 86q122 0 208.5 -86.5t86.5 -208.5t-87.5 -209.5t-209.5 -87.5q-123 0 -209 87t-86 210z" />
<glyph unicode="&#x2026;" horiz-adv-x="2048" d="M129 136q0 15 16 31l82 84q15 14 29 14q13 0 31 -16l80 -86q12 -16 12 -29q0 -15 -14 -31l-80 -88q-20 -20 -29 -20q-16 0 -29 14l-88 101q-10 13 -10 26zM812 136q0 15 16 31l82 84q15 14 29 14q13 0 31 -16l80 -86q12 -16 12 -29q0 -15 -14 -31l-80 -88 q-20 -20 -29 -20q-16 0 -29 14l-88 101q-10 13 -10 26zM1495 136q0 15 16 31l82 84q15 14 29 14q13 0 31 -16l80 -86q12 -16 12 -29q0 -15 -14 -31l-80 -88q-20 -20 -29 -20q-16 0 -29 14l-88 101q-10 13 -10 26z" />
<glyph unicode="&#x202f;" horiz-adv-x="325" />
<glyph unicode="&#x2039;" horiz-adv-x="631" d="M174 479l342 303h14v-37l-205 -266l205 -266v-37h-14z" />
<glyph unicode="&#x203a;" horiz-adv-x="631" d="M101 176v37l205 266l-205 266v37h14l342 -303l-342 -303h-14z" />
<glyph unicode="&#x205f;" horiz-adv-x="406" />
<glyph unicode="&#x20ac;" d="M-44 653l17 60h87v29q0 16 1 31h-71l17 60h58q14 145 76 281q81 178 226 274t298 96q43 0 87 -8q40 -10 82 -29q8 -6 16 -6q20 0 34 45h41l84 -281l-40 -1q-49 134 -138 178q-43 22 -81 32v3q-50 16 -101 16q-17 0 -34 -2q-120 -12 -226 -113.5t-157 -273.5 q-32 -104 -39 -211h706l-17 -60h-692q0 -30 2 -60h674l-17 -60h-652q17 -158 83 -298q74 -157 193 -236q102 -68 216 -69q186 3 256 91q74 91 74 185h48v-143q0 -70 -111 -127q-105 -54 -267 -56q-181 0 -325.5 98t-223.5 274q-62 135 -76 281h-108z" />
<glyph unicode="&#x2122;" horiz-adv-x="1497" />
<glyph unicode="&#xe000;" horiz-adv-x="800" d="M0 0v800h800v-800h-800z" />
</font>
</defs>
</svg>
